<svg width="0" height="0" class="hidden">
  <symbol fill="none" xmlns="http://www.w3.org/2000/svg" viewBox="0 0 24 24" id="close">
    <circle cx="12" cy="12" r="12" fill="#E7E9FC"></circle>
    <circle cx="12" cy="12" r="11.5" stroke="black" stroke-opacity="0.1"></circle>
    <g clip-path="url(#clip0_297083_8299)">
      <path d="M16 8.80571L15.1943 8L12 11.1943L8.80571 8L8 8.80571L11.1943 12L8 15.1943L8.80571 16L12 12.8057L15.1943 16L16 15.1943L12.8057 12L16 8.80571Z" fill="#2E2F42"></path>
    </g>
    <defs>
      <clipPath id="clip0_297083_8299">
        <rect width="8" height="8" fill="white" transform="translate(8 8)"></rect>
      </clipPath>
    </defs>
  </symbol>
  <symbol fill="none" xmlns="http://www.w3.org/2000/svg" viewBox="0 0 18 24" id="email">
    <g clip-path="url(#clip0_297083_8311)">
      <path d="M15 6H3C2.175 6 1.5075 6.675 1.5075 7.5L1.5 16.5C1.5 17.325 2.175 18 3 18H15C15.825 18 16.5 17.325 16.5 16.5V7.5C16.5 6.675 15.825 6 15 6ZM14.7 9.1875L9.3975 12.5025C9.1575 12.6525 8.8425 12.6525 8.6025 12.5025L3.3 9.1875C3.1125 9.0675 3 8.865 3 8.6475C3 8.145 3.5475 7.845 3.975 8.1075L9 11.25L14.025 8.1075C14.4525 7.845 15 8.145 15 8.6475C15 8.865 14.8875 9.0675 14.7 9.1875Z" fill="#2E2F42"></path>
    </g>
    <defs>
      <clipPath id="clip0_297083_8311">
        <rect width="18" height="24" fill="white"></rect>
      </clipPath>
    </defs>
  </symbol>
  <symbol fill="none" xmlns="http://www.w3.org/2000/svg" viewBox="0 0 24 24" id="Frame 1">
    <g clip-path="url(#clip0_754715_1111)">
      <path d="M9 12C10.6575 12 12 10.6575 12 9C12 7.3425 10.6575 6 9 6C7.3425 6 6 7.3425 6 9C6 10.6575 7.3425 12 9 12ZM9 13.5C6.9975 13.5 3 14.505 3 16.5V17.25C3 17.6625 3.3375 18 3.75 18H14.25C14.6625 18 15 17.6625 15 17.25V16.5C15 14.505 11.0025 13.5 9 13.5Z" fill="#4D5AE5"></path>
    </g>
    <line x1="22.625" y1="3.625" x2="22.625" y2="20.375" stroke="#2E2F42" stroke-width="1.25" stroke-linecap="round"></line>
    <defs>
      <clipPath id="clip0_754715_1111">
        <rect width="18" height="18" fill="white" transform="translate(0 3)"></rect>
      </clipPath>
    </defs>
  </symbol>
  <symbol fill="none" xmlns="http://www.w3.org/2000/svg" viewBox="0 0 18 24" id="phone">
    <g clip-path="url(#clip0_297083_8305)">
      <path d="M14.7263 13.8651L12.8881 13.6552C12.4467 13.6046 12.0125 13.7566 11.7013 14.0677L10.3697 15.3993C8.3217 14.3572 6.64276 12.6855 5.60067 10.6303L6.93947 9.29144C7.25065 8.98025 7.40263 8.54605 7.35197 8.1046L7.1421 6.28092C7.05526 5.55 6.44013 5 5.70198 5H4.45002C3.63226 5 2.952 5.68026 3.00266 6.49802C3.38621 12.6783 8.32894 17.6138 14.5019 17.9973C15.3197 18.048 15.9999 17.3677 15.9999 16.55V15.298C16.0072 14.5671 15.4572 13.952 14.7263 13.8651Z" fill="#2E2F42"></path>
    </g>
    <defs>
      <clipPath id="clip0_297083_8305">
        <rect width="18" height="24" fill="white"></rect>
      </clipPath>
    </defs>
  </symbol>
</svg>